<?xml version="1.0" standalone="no"?>
<!DOCTYPE svg PUBLIC "-//W3C//DTD SVG 20010904//EN"
 "http://www.w3.org/TR/2001/REC-SVG-20010904/DTD/svg10.dtd">
<svg version="1.0" xmlns="http://www.w3.org/2000/svg"
 width="256.000000pt" height="256.000000pt" viewBox="0 0 256.000000 256.000000"
 preserveAspectRatio="xMidYMid meet">

<g transform="translate(0.000000,256.000000) scale(0.100000,-0.100000)"
fill="#000000" stroke="none">
<path d="M1315 2145 c5 -59 47 -165 66 -165 12 0 13 -7 -22 85 -17 44 -35 94
-40 110 -6 22 -7 15 -4 -30z"/>
<path d="M935 2170 c-3 -5 -15 -10 -25 -10 -22 0 -36 -18 -24 -29 5 -4 22 5
39 21 16 15 27 28 23 28 -4 0 -10 -4 -13 -10z"/>
<path d="M1177 2075 c-25 -52 -40 -115 -37 -155 2 -19 3 -45 4 -57 0 -11 4
-19 9 -16 14 8 7 -35 -8 -47 -8 -7 -15 -16 -15 -21 0 -5 -10 -19 -21 -30 -17
-17 -23 -19 -30 -8 -5 8 -7 20 -4 28 4 10 -3 12 -31 6 -26 -4 -39 -2 -45 7 -7
11 -11 10 -19 -2 -7 -11 -3 -21 15 -39 32 -32 129 -42 168 -17 58 39 62 140 7
189 l-31 28 19 27 c11 15 29 46 40 68 17 34 19 44 9 58 -11 15 -15 13 -30 -19z"/>
<path d="M827 2093 c-4 -3 -7 -11 -7 -17 0 -6 5 -5 12 2 6 6 9 14 7 17 -3 3
-9 2 -12 -2z"/>
<path d="M735 2004 c-38 -41 -71 -79 -73 -84 -2 -5 31 27 74 70 43 44 76 82
73 84 -2 2 -35 -30 -74 -70z"/>
<path d="M1350 1875 c-32 -66 -15 -131 41 -161 33 -17 91 -12 120 9 20 15 50
73 42 81 -4 3 -27 6 -53 6 -54 0 -86 26 -96 78 -9 45 -28 40 -54 -13z m150
-111 c0 -8 -4 -12 -10 -9 -5 3 -10 10 -10 16 0 5 5 9 10 9 6 0 10 -7 10 -16z"/>
<path d="M586 1806 c-9 -19 -16 -40 -16 -48 0 -7 9 7 20 31 11 24 19 46 16 48
-2 2 -11 -12 -20 -31z"/>
<path d="M784 1739 c-14 -28 -24 -52 -22 -54 2 -2 42 -5 90 -6 l87 -4 -60 58
c-33 31 -62 57 -65 57 -2 0 -15 -23 -30 -51z m70 -10 c33 -26 25 -39 -25 -39
-41 0 -46 8 -29 41 13 24 21 24 54 -2z"/>
<path d="M533 1738 c-25 -32 -26 -40 -4 -26 12 7 21 16 21 21 0 4 5 5 12 1 7
-4 8 -3 4 4 -9 15 -21 15 -33 0z"/>
<path d="M1630 1739 c0 -7 -7 -20 -15 -29 -12 -14 -13 -19 -3 -27 12 -9 127
-33 157 -33 23 0 1 18 -30 25 -17 4 -49 23 -70 42 -22 20 -39 30 -39 22z"/>
<path d="M543 1713 c-7 -2 -13 -11 -13 -19 0 -7 -6 -11 -14 -8 -15 6 -50 -48
-44 -67 5 -14 88 69 88 87 0 8 -1 14 -2 13 -2 0 -9 -3 -15 -6z"/>
<path d="M568 1583 c6 -2 18 -2 25 0 6 3 1 5 -13 5 -14 0 -19 -2 -12 -5z"/>
<path d="M466 1571 c-4 -6 -3 -11 3 -11 6 0 8 -6 5 -14 -3 -8 21 -52 53 -99
32 -47 60 -81 62 -75 2 5 -9 40 -24 76 -29 71 -87 142 -99 123z"/>
<path d="M1818 1571 c-11 -4 -14 -11 -9 -19 6 -10 10 -10 21 3 15 19 11 25
-12 16z"/>
<path d="M1741 1551 c-10 -7 -11 -13 -2 -29 10 -18 15 -20 35 -11 16 8 22 17
19 30 -6 20 -29 25 -52 10z"/>
<path d="M787 1542 c-21 -4 -16 -31 15 -74 22 -32 30 -34 48 -13 11 13 10 14
-2 10 -18 -7 -61 42 -52 57 3 5 39 8 80 7 41 -1 77 1 81 4 3 4 -2 8 -13 8 -58
4 -141 5 -157 1z"/>
<path d="M1648 1522 c-16 -7 -16 -10 -3 -36 8 -15 15 -35 15 -42 0 -26 15 -14
33 26 25 54 9 73 -45 52z"/>
<path d="M879 1483 c-13 -16 -12 -17 4 -4 9 7 17 15 17 17 0 8 -8 3 -21 -13z"/>
<path d="M1025 1470 c-3 -5 -2 -10 4 -10 5 0 13 5 16 10 3 6 2 10 -4 10 -5 0
-13 -4 -16 -10z"/>
<path d="M1398 1450 l-31 -30 19 -36 c12 -22 20 -30 22 -20 4 19 75 17 94 -2
7 -7 21 -12 33 -12 53 0 62 64 14 104 -33 28 -55 33 -62 14 -4 -10 -6 -10 -6
0 -2 23 -51 12 -83 -18z"/>
<path d="M1092 1458 c-80 -17 -125 -84 -84 -128 19 -20 19 -20 37 0 16 18 20
18 46 4 34 -17 51 -47 74 -129 9 -33 25 -85 35 -116 10 -31 21 -75 24 -99 10
-82 18 -54 11 40 -11 156 -22 208 -55 261 l-30 49 26 41 c24 39 25 41 7 55
-35 27 -48 31 -91 22z m18 -23 c20 -24 6 -28 -15 -5 -10 11 -13 20 -8 20 6 0
16 -7 23 -15z"/>
<path d="M1347 1171 c-4 -18 -7 -48 -6 -65 l1 -31 9 34 c6 18 9 47 7 65 l-3
31 -8 -34z"/>
<path d="M626 1136 c13 -24 32 -67 42 -97 32 -97 122 -242 122 -197 0 9 9 27
21 42 19 25 20 26 2 32 -33 10 -48 21 -59 42 -6 12 -18 30 -26 39 -8 10 -32
50 -52 88 -20 39 -44 75 -55 82 -17 11 -16 7 5 -31z"/>
<path d="M485 1079 c24 -27 35 -48 32 -60 -4 -15 0 -19 19 -19 14 0 41 -7 61
-15 19 -8 37 -15 39 -15 9 0 -30 66 -45 77 -22 17 -127 73 -136 73 -4 0 9 -18
30 -41z"/>
<path d="M1959 1084 c-35 -23 -63 -50 -73 -71 -21 -45 -20 -48 9 -29 13 9 37
16 52 16 25 0 30 5 42 46 7 25 20 52 28 60 25 25 0 15 -58 -22z"/>
<path d="M1800 991 c-14 -17 -38 -47 -53 -66 -21 -26 -26 -38 -19 -51 5 -9 7
-26 4 -37 -11 -42 18 -4 58 77 45 91 50 130 10 77z"/>
<path d="M1331 994 c0 -11 3 -14 6 -6 3 7 2 16 -1 19 -3 4 -6 -2 -5 -13z"/>
<path d="M1332 900 c0 -14 2 -19 5 -12 2 6 2 18 0 25 -3 6 -5 1 -5 -13z"/>
<path d="M1231 854 c0 -11 3 -14 6 -6 3 7 2 16 -1 19 -3 4 -6 -2 -5 -13z"/>
<path d="M651 847 c-19 -4 -44 -6 -55 -3 -19 5 -20 4 -3 -8 9 -7 17 -19 17
-25 0 -7 5 -21 11 -32 8 -15 14 -17 23 -10 7 6 28 14 47 18 l35 8 -21 31 c-19
28 -23 29 -54 21z"/>
<path d="M1809 832 c-16 -28 -16 -29 12 -39 26 -10 30 -8 54 23 l26 34 -25 0
c-13 0 -30 2 -38 5 -7 3 -20 -7 -29 -23z"/>
<path d="M1660 838 c-1 -7 -22 -28 -48 -46 -132 -91 -182 -113 -208 -91 -29
24 -25 0 6 -35 37 -41 26 -48 -18 -11 -32 27 -62 33 -62 13 0 -31 44 -157 56
-162 8 -3 14 -2 14 3 0 12 65 37 118 46 26 4 41 11 39 18 -3 7 -11 10 -18 8
-8 -2 -18 -4 -24 -6 -5 -1 -17 -5 -27 -9 -9 -4 -31 -6 -50 -4 l-33 3 34 19
c19 10 39 22 45 27 6 6 40 29 75 52 36 23 73 53 83 67 18 24 37 120 24 120 -3
0 -6 -6 -6 -12z"/>
<path d="M1172 809 c-7 -11 -11 -24 -8 -27 10 -9 28 15 24 32 -2 14 -5 13 -16
-5z"/>
<path d="M870 788 c0 -31 7 -42 44 -75 24 -21 65 -49 92 -62 58 -29 114 -70
114 -83 0 -5 -4 -7 -9 -4 -5 3 -31 8 -58 12 -38 4 -53 1 -63 -11 -7 -8 -9 -15
-4 -16 5 -1 16 -2 24 -3 8 -2 29 -3 47 -4 18 -1 45 -14 64 -29 39 -33 65 -38
77 -15 24 46 50 252 31 252 -5 0 -9 -9 -9 -21 0 -33 -53 -79 -92 -79 -62 0
-212 94 -246 155 -10 18 -11 16 -12 -17z m165 -120 c14 -6 25 -16 25 -21 0 -5
-6 -5 -13 2 -8 6 -16 9 -18 7 -2 -2 -10 2 -17 10 -16 17 -11 18 23 2z"/>
<path d="M1232 780 c0 -14 2 -19 5 -12 2 6 2 18 0 25 -3 6 -5 1 -5 -13z"/>
<path d="M788 683 c-32 -5 -37 -19 -9 -28 10 -3 26 -14 36 -25 16 -18 19 -18
42 -3 l24 16 -22 23 c-13 13 -27 23 -33 23 -6 -1 -23 -4 -38 -6z"/>
<path d="M1671 669 c-21 -17 -22 -22 -10 -30 18 -11 49 -12 49 0 0 5 15 16 33
25 24 12 27 16 12 16 -11 0 -29 2 -40 5 -12 3 -30 -4 -44 -16z"/>
</g>
</svg>
